<?xml version="1.0" encoding="utf-8"?>
<!-- Generator: Adobe Illustrator 17.1.0, SVG Export Plug-In . SVG Version: 6.00 Build 0)  -->
<!DOCTYPE svg PUBLIC "-//W3C//DTD SVG 1.1//EN" "http://www.w3.org/Graphics/SVG/1.1/DTD/svg11.dtd">
<svg version="1.1" id="Layer_1" xmlns="http://www.w3.org/2000/svg" xmlns:xlink="http://www.w3.org/1999/xlink" x="0px" y="0px"
	 viewBox="0 0 100 100" enable-background="new 0 0 100 100" xml:space="preserve">
<g id="Captions">
</g>
<g id="Your_Icon">
	<path fill="#1E3B4C" d="M85.9,78.7c-0.7,0-1.3,0.6-1.3,1.3v11l12.4-12.3h-4.2C92.9,78.7,85.9,78.7,85.9,78.7z"/>
	<path fill="#1E3B4C" d="M99.9,30.4L99.9,30.4C100,28.9,100,29.1,99.9,30.4z"/>
	<path fill="#1E3B4C" d="M19.7,21.3c0.8,0,1.5-0.7,1.5-1.5V7.7c0-0.8-0.7-1.5-1.5-1.5s-1.5,0.7-1.5,1.5v12.1
		C18.2,20.6,18.9,21.3,19.7,21.3z"/>
	<path fill="#1E3B4C" d="M80.2,21.3c0.8,0,1.5-0.7,1.5-1.5V7.7c0-0.8-0.7-1.5-1.5-1.5c-0.8,0-1.5,0.7-1.5,1.5v12.1
		C78.7,20.6,79.3,21.3,80.2,21.3z"/>
	<path fill="#1E3B4C" d="M0,93.9h81.6V79.9c0-2.3,1.9-4.2,4.2-4.2h13.9l0,0c0,0,0-38.6,0.1-45.4H0.2L0,93.9z M81.7,39.4h9.1v9.1
		h-9.1V39.4z M81.7,51.5h9.1v9.1h-9.1V51.5z M81.7,63.6h9.1v9.1h-9.1V63.6z M69.6,39.4h9.1v9.1h-9.1V39.4z M69.6,51.5h9.1v9.1h-9.1
		V51.5z M69.6,63.6h9.1v9.1h-9.1V63.6z M57.5,39.4h9.1v9.1h-9.1C57.5,48.5,57.5,39.4,57.5,39.4z M57.5,51.5h9.1v9.1h-9.1
		C57.5,60.6,57.5,51.5,57.5,51.5z M57.5,63.6h9.1v9.1h-9.1C57.5,72.7,57.5,63.6,57.5,63.6z M45.4,51.5h9.1v9.1h-9.1
		C45.4,60.6,45.4,51.5,45.4,51.5z M45.4,63.6h9.1v9.1h-9.1C45.4,72.7,45.4,63.6,45.4,63.6z M45.4,75.7h9.1v9.1h-9.1
		C45.4,84.8,45.4,75.7,45.4,75.7z M33.3,51.5h9.1v9.1h-9.1C33.3,60.6,33.3,51.5,33.3,51.5z M33.3,63.6h9.1v9.1h-9.1
		C33.3,72.7,33.3,63.6,33.3,63.6z M33.3,75.7h9.1v9.1h-9.1C33.3,84.8,33.3,75.7,33.3,75.7z M21.2,51.5h9.1v9.1h-9.1V51.5z
		 M21.2,63.6h9.1v9.1h-9.1V63.6z M21.2,75.7h9.1v9.1h-9.1V75.7z M9.1,51.5h9.1v9.1H9.1V51.5z M9.1,63.6h9.1v9.1H9.1V63.6z M9.1,75.7
		h9.1v9.1H9.1V75.7z"/>
	<path fill="#1E3B4C" d="M99.8,12.2H84.7v7.6c0,2.5-2,4.5-4.5,4.5c-2.5,0-4.5-2-4.5-4.5v-7.6H24.2v7.6c0,2.5-2,4.5-4.5,4.5
		c-2.5,0-4.5-2-4.5-4.5v-7.6H0v15.1h99.8V12.2z"/>
</g>
</svg>
