<?xml version="1.0" encoding="utf-8"?>
<!-- Generator: Adobe Illustrator 17.1.0, SVG Export Plug-In . SVG Version: 6.00 Build 0)  -->
<!DOCTYPE svg PUBLIC "-//W3C//DTD SVG 1.1//EN" "http://www.w3.org/Graphics/SVG/1.1/DTD/svg11.dtd">
<svg version="1.1" id="Layer_1" xmlns="http://www.w3.org/2000/svg" xmlns:xlink="http://www.w3.org/1999/xlink" x="0px" y="0px"
	 viewBox="0 0 50 50" enable-background="new 0 0 50 50" xml:space="preserve">
<g>
	<path fill="#1E3B4C" d="M37,24.1h7.1c-0.1-2.8-0.9-5.6-2.2-8.1h-6C36.5,18.6,36.9,21.3,37,24.1z"/>
	<path fill="#1E3B4C" d="M14.6,24.1h9.4v-8.1h-8.2C15,18.6,14.6,21.3,14.6,24.1z"/>
	<path fill="#1E3B4C" d="M17.7,11.2c-0.5,0.9-1,1.9-1.4,3h7.6V5.9C21.6,6.3,19.4,8.2,17.7,11.2z"/>
	<path fill="#1E3B4C" d="M17.7,38.9c1.7,3.1,3.9,5,6.2,5.4v-8.2h-7.5C16.8,37.1,17.2,38,17.7,38.9z"/>
	<path fill="#1E3B4C" d="M15.8,34.2h8.1V26h-9.4C14.6,28.9,15.1,31.7,15.8,34.2z"/>
	<path fill="#1E3B4C" d="M16.1,10.4c0.8-1.4,1.6-2.6,2.6-3.5c-2.8,0.9-5.4,2.5-7.5,4.6c-0.8,0.8-1.6,1.8-2.3,2.8h5.5
		C14.9,12.8,15.5,11.5,16.1,10.4z"/>
	<path fill="#1E3B4C" d="M13.8,16.1h-6c-1.3,2.5-2.1,5.3-2.2,8.1h7.1C12.8,21.3,13.2,18.6,13.8,16.1z"/>
	<path fill="#1E3B4C" d="M12.7,26H5.6c0.1,2.9,0.9,5.7,2.3,8.2h6C13.2,31.6,12.8,28.9,12.7,26z"/>
	<path fill="#1E3B4C" d="M14.4,36.1H9c0.7,0.9,1.4,1.8,2.2,2.6c2.1,2.1,4.7,3.7,7.5,4.6c-1-1-1.8-2.2-2.6-3.5
		C15.5,38.7,14.9,37.4,14.4,36.1z"/>
	<path fill="#1E3B4C" d="M35.8,34.2h6c1.4-2.5,2.1-5.3,2.3-8.2H37C36.9,28.9,36.5,31.6,35.8,34.2z"/>
	<path fill="#1E3B4C" d="M33.6,39.8c-0.8,1.4-1.6,2.6-2.6,3.5c2.8-0.9,5.4-2.5,7.5-4.6c0.8-0.8,1.5-1.7,2.2-2.6h-5.4
		C34.8,37.4,34.2,38.7,33.6,39.8z"/>
	<path fill="#1E3B4C" d="M25,1.2C11.9,1.2,1.2,11.9,1.2,25c0,13.1,10.6,23.8,23.8,23.8S48.8,38.1,48.8,25C48.8,11.9,38.1,1.2,25,1.2
		z M24.9,46.2L24.9,46.2L24.9,46.2c-11.7,0-21.1-9.5-21.1-21.1C3.7,13.4,13.2,4,24.8,4C36.5,4,46,13.4,46,25.1
		C46,36.7,36.5,46.2,24.9,46.2z"/>
	<path fill="#1E3B4C" d="M35.3,14.2h5.5c-0.7-1-1.4-1.9-2.3-2.8c-2.1-2.1-4.7-3.7-7.5-4.6c1,1,1.8,2.2,2.6,3.5
		C34.2,11.5,34.8,12.8,35.3,14.2z"/>
	<path fill="#1E3B4C" d="M33.3,36.1h-7.5v8.2c2.3-0.4,4.5-2.3,6.2-5.4C32.5,38,32.9,37.1,33.3,36.1z"/>
	<path fill="#1E3B4C" d="M35.1,26h-9.4v8.2h8.1C34.6,31.7,35.1,28.9,35.1,26z"/>
	<path fill="#1E3B4C" d="M33.9,16.1h-8.2v8.1h9.4C35.1,21.3,34.6,18.6,33.9,16.1z"/>
	<path fill="#1E3B4C" d="M32,11.2c-1.7-3.1-3.9-5-6.2-5.4v8.3h7.6C32.9,13.1,32.5,12.2,32,11.2z"/>
</g>
</svg>
