<?xml version="1.0" encoding="utf-8"?>
<!-- Generator: Adobe Illustrator 17.1.0, SVG Export Plug-In . SVG Version: 6.00 Build 0)  -->
<!DOCTYPE svg PUBLIC "-//W3C//DTD SVG 1.1//EN" "http://www.w3.org/Graphics/SVG/1.1/DTD/svg11.dtd">
<svg version="1.1" id="Layer_1" xmlns="http://www.w3.org/2000/svg" xmlns:xlink="http://www.w3.org/1999/xlink" x="0px" y="0px"
	 viewBox="0 353 612 439" enable-background="new 0 353 612 439" xml:space="preserve">
<path fill="none" d="M345.2,508.9c5.1,54.7,36.8,96.6,76.1,96.6s71.8-43.6,76.1-99.1c0.9-3.4,0.9-7.7,0.9-11.1l-12,13.7
	c2.6-5.1,0.9-12-0.9-19.7h-130c0,12.8,1.7,24.8,1.7,24.8C352.8,511.5,348.6,509.7,345.2,508.9z"/>
<g>
	<g>
		<path fill="#1E3B4C" d="M216.1,705.5H211c-2.6,0-5.1,0-5.1-2.6c0-2.6,1.7-5.1,4.3-5.1l0,0l0,0l0,0l0,0c0,0.9,1.7,2.6,2.6,3.4v-1.7
			c0,0,0,0-0.9-0.9c0,0,0,0,0-0.9h0.9h0.9c0,0,0,0,0,0.9c0,0,0,0-0.9,0.9v1.7c0.9-0.9,1.7-2.6,2.6-3.4c0,0,0,0,0-0.9l0,0l0,0
			c0,0,0,0,0.9,0c2.6,0.9,4.3,2.6,4.3,5.1C221.2,705.5,218.7,705.5,216.1,705.5z M240.9,706.3h-10.3c-0.9,0-1.7-0.9-1.7-1.7
			c0-0.9,0.9-1.7,1.7-1.7h10.3c0.9,0,1.7,0.9,1.7,1.7C242.6,705.5,241.7,706.3,240.9,706.3z M240.9,696.1h-10.3
			c-0.9,0-1.7-0.9-1.7-1.7c0-0.8,0.9-1.7,1.7-1.7h10.3c0.9,0,1.7,0.9,1.7,1.7C242.6,695.2,241.7,696.1,240.9,696.1z"/>
		<path fill="#1E3B4C" d="M240.9,691.8h-10.3c-0.9,0-1.7,0.9-1.7,1.7c0,0.9,0.9,1.7,1.7,1.7h10.3c0.9,0,1.7-0.9,1.7-1.7
			S241.7,691.8,240.9,691.8z"/>
		<path fill="#1E3B4C" d="M240.9,702.1h-10.3c-0.9,0-1.7,0.9-1.7,1.7c0,0.9,0.9,1.7,1.7,1.7h10.3c0.9,0,1.7-0.9,1.7-1.7
			C242.6,702.9,241.7,702.1,240.9,702.1z"/>
		<path fill="#1E3B4C" d="M209.3,692.7L209.3,692.7c0,2.6,1.7,5.1,4.3,5.1c1.7,0,3.4-2.6,4.3-5.1c0,0,0,0,0-0.9c0,0,0,0,0-0.9
			c0-1.7-1.7-3.4-4.3-3.4c-1.7,0-3.4,1.7-4.3,3.4C209.3,691.8,209.3,691.8,209.3,692.7L209.3,692.7L209.3,692.7z M211,691
			c0,0,2.6,1.7,4.3,0c0,0,0.9,1.7,0.9,2.6l0.9-0.9c0,0,0,0,0,0.9c0,2.6-1.7,4.3-3.4,4.3s-3.4-1.7-3.4-4.3c0,0,0,0,0.9,0
			C210.1,693.5,210.1,691,211,691z"/>
		<path fill="#1E3B4C" d="M216.9,696.9C216.1,696.9,216.1,696.9,216.9,696.9C216.1,696.9,216.1,696.9,216.9,696.9
			C216.1,696.9,216.1,696.9,216.9,696.9C216.1,697.8,216.1,697.8,216.9,696.9c-0.9,1.7-2.6,3.4-3.4,4.3v-1.7c0,0,0,0,0.9-0.9
			c0,0,0,0,0-0.9h-0.9h-0.9c0,0,0,0,0,0.9c0,0,0,0,0.9,0.9v1.7c-0.9-0.9-1.7-2.6-2.6-3.4l0,0l0,0l0,0l0,0c-2.6,0-4.3,2.6-4.3,5.1
			c0,2.6,2.6,2.6,5.1,2.6h5.1c2.6,0,5.1,0,5.1-2.6C221.2,699.5,218.7,697.8,216.9,696.9z"/>
	</g>
	<g>
		<path fill="#1E3B4C" d="M98.1,599.5L98.1,599.5L98.1,599.5c0,2.6,0.9,4.3,1.7,6l0,0C99,602.9,98.1,601.2,98.1,599.5L98.1,599.5z"
			/>
		<path fill="#1E3B4C" d="M98.1,598.6C98.1,598.6,98.1,597.8,98.1,598.6C98.1,597.8,98.1,597.8,98.1,598.6
			C98.1,597.8,98.1,598.6,98.1,598.6L98.1,598.6z"/>
		<path fill="#1E3B4C" d="M217.8,599.5c-2.6-0.9-6-0.9-8.5-0.9l0,0l0,0l0,0l0,0l0,0c0,0,0,0,0,0.9c0,0,0,0,0,0.9l0,0l0,0
			c0,2.6-1.7,5.1-2.6,8.5l0,0c-7.7,17.1-29.9,47-43.6,64.1l-2.6-36.8c3.4-1.7,6.8-5.1,8.5-8.5c1.7-2.6,2.6-6,2.6-9.4
			c0,0-9.4,4.3-19.7,4.3c-9.4,0-19.7-4.3-19.7-4.3c0,2.6,0.9,6,2.6,8.5c1.7,3.4,5.1,6.8,9.4,8.5l-2.6,37.6
			c-12.8-17.9-34.2-50.4-41-67.5c-0.9-1.7-1.7-4.3-1.7-6v-0.9l0,0l0,0l0,0l0,0c-0.9,0-1.7,0-1.7,0h-1.7l0,0
			c-44.4,6-78.6,44.4-78.6,90.6c0,50.4,41,50.4,91.5,50.4h94c50.4,0,91.5,0,91.5-50.4C292.2,644.8,259.7,607.2,217.8,599.5z
			 M249.4,708.9c0,3.4-2.6,6-6,6h-38.5c-3.4,0-6-2.6-6-6V685c0-3.4,2.6-6,6-6h38.5c3.4,0,6,2.6,6,6V708.9z"/>
		<path fill="#1E3B4C" d="M81.9,506.3L81.9,506.3h1.7c0,0.9,0,0.9,0,1.7c0,1.7,0,3.4,0,4.3c0,2.6,0,4.3,0.9,6.8c0,0.9,0,1.7,0,1.7
			c4.3,49.6,33.3,88.9,69.2,88.9s65-39.3,69.2-90.6c0.9-3.4,0.9-7.7,0.9-11.1c0-0.9,0-0.9,0-1.7h1.7l0,0c6,0,19.7-4.3,19.7-10.3
			s-13.7-10.3-19.7-10.3l0,0c-4.3-26.5-21.4-53-45.3-64.1l-1.7,18.8l-0.9,12h-1.7l0.9-13.7l1.7-18.8v-4.3l-11.1-0.9v0.9l-0.9,19.7
			l-0.9,16.2v0.9l-0.8,29.1h-1.7l0.9-46.2l0.9-19.7v-6.8h-24.8v7.7l0.9,19.7l0.9,46.2h-1.7l-1.7-29.9v-0.9v-15.4l-0.9-19.7v-1.7
			l-12,0.9v6l0.9,17.9l0.9,12h-1.7l-0.9-11.1l-1.7-17.9C100,435.4,84.6,460.2,81.2,485l0,0c-6,0-19.7,4.3-19.7,10.3
			C62.2,502.1,75.9,506.3,81.9,506.3z M100.7,506.3h103.4c1.7,6,2.6,12,0.9,15.4l9.4-11.1c0,2.6,0,6-0.9,8.5
			c-2.6,45.3-29.1,79.5-59.8,79.5S97.3,565.3,93,521.7c2.6,0.9,6,1.7,9.4,4.3C102.4,526,100.7,516.6,100.7,506.3z"/>
	</g>
</g>
<g>
	<g>
		<path fill="#1E3B4C" d="M499,738h-6.8c-3.4,0-6,0-6-3.4c0-3.4,2.6-6,5.1-6l0,0l0,0l0,0c0,0,0,0,0,0.9c0.9,0.9,1.7,3.4,2.6,4.3
			v-2.6c0,0-0.9,0-0.9-0.9c0,0,0,0,0-0.9c0,0,0.9,0,1.7,0c0.9,0,1.7,0,1.7,0v0.9c0,0,0,0.9-0.9,0.9v2.6c0.9-0.9,2.6-3.4,3.4-4.3
			c0,0,0,0,0-0.9l0,0l0,0c0,0,0,0,0.9,0c2.6,0.9,5.1,3.4,5.1,6C505,738,502.4,738,499,738z M529.8,738.8H517c-0.9,0-2.6-0.9-2.6-2.6
			c0-0.9,0.9-2.6,2.6-2.6h12.8c0.9,0,2.6,0.9,2.6,2.6C532.3,738,531.5,738.8,529.8,738.8z M529.8,726H517c-0.9,0-2.6-0.9-2.6-2.6
			c0-0.9,0.9-2.6,2.6-2.6h12.8c0.9,0,2.6,0.9,2.6,2.6S531.5,726,529.8,726z"/>
		<path fill="#1E3B4C" d="M529.8,721.7H517c-0.9,0-2.6,0.9-2.6,2.6s0.9,2.6,2.6,2.6h12.8c0.9,0,2.6-0.9,2.6-2.6
			C532.3,722.6,531.5,721.7,529.8,721.7z"/>
		<path fill="#1E3B4C" d="M529.8,734.5H517c-0.9,0-2.6,0.9-2.6,2.6s0.9,2.6,2.6,2.6h12.8c0.9,0,2.6-0.9,2.6-2.6
			C532.3,735.4,531.5,734.5,529.8,734.5z"/>
		<path fill="#1E3B4C" d="M490.5,722.6L490.5,722.6c0,3.4,2.6,6,5.1,6s4.3-2.6,5.1-6v-0.9v-0.9c0-2.6-2.6-4.3-5.1-4.3
			s-4.3,1.7-5.1,4.3C490.5,720.9,490.5,721.7,490.5,722.6C490.5,721.7,490.5,721.7,490.5,722.6L490.5,722.6z M492.2,720
			c0,0,3.4,1.7,6,0c0,0,1.7,1.7,0.9,2.6l0.9-0.9c0,0,0,0,0,0.9c0,3.4-1.7,5.1-4.3,5.1s-4.3-2.6-4.3-5.1c0,0,0,0,0.9,0
			C492.2,722.6,491.3,720,492.2,720z"/>
		<path fill="#1E3B4C" d="M499.9,727.7L499.9,727.7C499,727.7,499,727.7,499.9,727.7C499,727.7,499,727.7,499.9,727.7
			C499,728.6,499,728.6,499.9,727.7c-1.7,1.7-2.6,3.4-3.4,5.1v-2.6c0,0,0.9,0,0.9-0.9c0,0,0,0,0-0.9c0,0-0.9,0-1.7,0
			c-0.9,0-1.7,0-1.7,0s0,0,0,0.9c0,0,0,0.9,0.9,0.9v2.6c-0.9-0.9-2.6-3.4-2.6-4.3c0,0,0,0,0-0.9l0,0l0,0l0,0c-3.4,0.9-5.1,3.4-5.1,6
			c0,3.4,2.6,3.4,6,3.4h6.8c3.4,0,6,0,6-3.4C505,731.1,502.4,728.6,499.9,727.7z"/>
	</g>
	<g>
		<path fill="#1E3B4C" d="M351.1,605.5C351.1,606.3,351.1,606.3,351.1,605.5C351.1,606.3,351.1,606.3,351.1,605.5
			c0,2.6,0.9,5.1,2.6,7.7l0,0C352.8,610.6,352,608,351.1,605.5C351.1,606.3,351.1,606.3,351.1,605.5z"/>
		<path fill="#1E3B4C" d="M351.1,604.6C351.1,604.6,351.1,603.8,351.1,604.6C351.1,603.8,351.1,603.8,351.1,604.6
			C351.1,603.8,351.1,604.6,351.1,604.6L351.1,604.6z"/>
		<path fill="#1E3B4C" d="M500.7,605.5c-3.4-0.9-6.8-0.9-11.1-1.7l0,0l0,0l0,0l0,0l0,0c0,0,0,0,0,0.9c0,0,0,0,0,0.9l0,0l0,0
			c-0.9,2.6-1.7,6-3.4,10.3l0,0c-10.3,21.4-37.6,58.1-54.7,80.3l-3.4-46.2c4.3-2.6,8.5-6,11.1-10.3c1.7-3.4,3.4-7.7,3.4-11.1
			c0,0-12,5.1-23.9,5.1s-23.9-5.1-23.9-5.1c0,3.4,0.9,7.7,2.6,10.3c2.6,4.3,6.8,8.5,11.1,11.1l-3.4,47
			c-16.2-23.1-42.7-62.4-51.3-83.8c-0.9-2.6-1.7-5.1-2.6-7.7c0-0.9,0-0.9,0-1.7c0,0,0,0,0-0.9l0,0l0,0l0,0c-0.9,0-1.7,0-2.6,0
			s-1.7,0-2.6,0l0,0c-55.6,7.7-98.3,55.6-98.3,112.8c0,63.3,51.3,63.3,114.5,63.3h118c63.3,0,114.5,0,114.5-63.3
			C593.9,661.9,553.7,615.7,500.7,605.5z M540.9,742.2c0,4.3-3.4,6.8-6.8,6.8h-48.7c-4.3,0-6.8-3.4-6.8-6.8v-29.9
			c0-4.3,3.4-6.8,6.8-6.8h48.7c4.3,0,6.8,3.4,6.8,6.8V742.2z"/>
		<path fill="#1E3B4C" d="M331.5,489.2L331.5,489.2h1.7c0,0.9,0,0.9,0,1.7c0,1.7,0,3.4,0,6c0,2.6,0,5.1,0.9,8.5c0,0.9,0,1.7,0,2.6
			c5.1,62.4,41.9,110.3,86.3,110.3s82.1-49.6,86.3-112.8c0.9-4.3,0.9-9.4,0.9-13.7c0-0.9,0-0.9,0-1.7h2.6l0,0
			c6.8,0,24.8-6,24.8-12.8c0-6.8-17.1-12.8-24.8-12.8l0,0c-5.1-33.3-26.5-65.8-57.3-80.3l-1.7,23.1l-0.9,15.4h-2.6l0.9-17.1
			l1.7-23.1v-5.1l-12.8-1.7v0.9l-0.9,24.8l-0.9,19.7v0.9l-0.9,36.8h-2.6l1.7-58.1l0.9-24.8v-8.5h-31.6v9.4l0.9,24.8l1.7,56.9h-2.6
			l-0.9-36.8v-0.9l-0.9-18.8l-0.9-24.8v-1.7l-15.4,0.9l0.9,6.8l1.7,23.1l0.9,15.4H386l-0.9-13.7l-1.7-23.1
			c-28.2,15.4-47.9,46.2-53,78.6l0,0c-6.8,0-24.8,6-24.8,12.8C306.7,484.1,323.8,489.2,331.5,489.2z M355.4,489.2h129.1
			c2.6,7.7,3.4,14.5,0.9,19.7l12-13.7c0,3.4,0,7.7-0.9,11.1c-4.3,55.6-36.8,99.1-76.1,99.1c-38.5,0-70.9-41.9-76.1-96.6
			c3.4,0.9,7.7,2.6,12,6C357.1,514,355.4,502.9,355.4,489.2z"/>
	</g>
</g>
</svg>
