<?xml version="1.0" encoding="utf-8"?>
<!-- Generator: Adobe Illustrator 17.1.0, SVG Export Plug-In . SVG Version: 6.00 Build 0)  -->
<!DOCTYPE svg PUBLIC "-//W3C//DTD SVG 1.1//EN" "http://www.w3.org/Graphics/SVG/1.1/DTD/svg11.dtd">
<svg version="1.1" id="Layer_1" xmlns="http://www.w3.org/2000/svg" xmlns:xlink="http://www.w3.org/1999/xlink" x="0px" y="0px"
	 viewBox="0 0 100 100" enable-background="new 0 0 100 100" xml:space="preserve">
<g id="Captions">
</g>
<g id="Your_Icon">
	<g>
		<path fill="#FFFFFF" d="M21.9,37.6l-7.2,25.3L21.9,37.6L21.9,37.6z"/>
		<path fill="#FFFFFF" d="M8,74C8,74,8,74,8,74c0,0.1,0.1,0.1,0.1,0.2C8.1,74.1,8.1,74.1,8,74z M21.9,37.6l-7.2,25.3L21.9,37.6
			L21.9,37.6z"/>
	</g>
	<g>
		<path fill="#FFFFFF" d="M81.1,33.5L81.1,33.5l7.2-5.4v0L81.1,33.5z"/>
	</g>
	<g>
		<path fill="#FFFFFF" d="M81.1,33.5L81.1,33.5l7.2-5.4v0L81.1,33.5z"/>
		<path fill="#FFFFFF" d="M92.2,23.9c0-0.1,0-0.1,0-0.2c0-0.1-0.1-0.2-0.1-0.3c0-0.1-0.1-0.1-0.1-0.2c0-0.1-0.1-0.2-0.2-0.2
			c0-0.1-0.1-0.1-0.1-0.2c-0.1-0.1-0.1-0.1-0.2-0.2c-0.1-0.1-0.3-0.2-0.4-0.3L50.9,2.2c0,0-0.1,0-0.1,0c0,0-0.1,0-0.1,0
			c0,0,0,0-0.1,0c0,0-0.1,0-0.1,0c0,0-0.1,0-0.1,0c0,0,0,0-0.1,0c0,0,0,0,0,0c-0.1,0-0.2,0-0.4,0s-0.2,0-0.4,0c0,0,0,0,0,0
			c0,0,0,0-0.1,0c0,0-0.1,0-0.1,0c0,0-0.1,0-0.1,0c0,0,0,0-0.1,0c0,0-0.1,0-0.1,0c0,0-0.1,0-0.1,0l0,0L8.9,22.3
			c-0.1,0.1-0.3,0.2-0.4,0.3c-0.1,0.1-0.1,0.1-0.2,0.2c-0.1,0.1-0.1,0.1-0.2,0.2C8.1,23.1,8,23.1,8,23.2c0,0.1-0.1,0.1-0.1,0.2
			c0,0.1-0.1,0.2-0.1,0.3c0,0.1,0,0.1,0,0.2c0,0.1,0,0.1,0,0.2V73c0,0.1,0,0.2,0,0.3c0,0,0,0,0,0c0,0.1,0,0.1,0,0.2c0,0,0,0,0,0.1
			c0,0,0,0,0,0c0,0.1,0.1,0.1,0.1,0.2c0,0,0,0,0,0.1c0,0,0,0.1,0.1,0.1c0,0,0,0,0,0.1c0,0.1,0.1,0.1,0.1,0.2
			c0.1,0.2,0.2,0.3,0.4,0.4c0.1,0.1,0.1,0.1,0.2,0.1c0.1,0,0.1,0.1,0.2,0.1c0,0,0,0,0,0L49,97.7l0,0c0.3,0.2,0.7,0.3,1,0.3
			c0.3,0,0.7-0.1,1-0.3l40.1-22.9c0.2-0.1,0.3-0.2,0.4-0.3c0.1-0.1,0.1-0.1,0.2-0.2c0.1-0.1,0.1-0.1,0.1-0.2c0,0,0,0,0.1-0.1
			c0,0,0-0.1,0-0.1c0-0.1,0.1-0.1,0.1-0.2c0.1-0.1,0.1-0.2,0.1-0.3c0-0.1,0-0.1,0-0.2c0-0.1,0-0.2,0-0.3V24.1
			C92.2,24,92.2,24,92.2,23.9z M86.4,24.5l-7.5,5.6L60.1,11.3L86.4,24.5z M50,6.8l23.9,23.9H26.1L50,6.8z M39.9,11.3L21.1,30.1
			l-7.5-5.6L39.9,11.3z M11.8,28.1l7.2,5.4v0l-7.2,25.2C11.8,58.7,11.8,28.1,11.8,28.1z M14.7,62.9l7.2-25.3l0,0L46,76.2l-33.7-4.8
			L14.7,62.9z M48,92.6L19.8,76.5l28.2,4V92.6z M50,75L37.1,54.3L24.9,34.8h50.3L50,75z M52,92.6V80.5l28.2-4L52,92.6z M54,76.2
			l24.1-38.5l8,28.1l1.6,5.6L54,76.2z M88.2,58.7l-7.2-25.2v0l7.2-5.4V58.7z"/>
	</g>
	<g>
		<path fill="#FFFFFF" d="M11.8,28.1L11.8,28.1l7.2,5.4L11.8,28.1z"/>
	</g>
	<g>
		<path fill="#FFFFFF" d="M11.8,28.1L11.8,28.1l7.2,5.4L11.8,28.1z"/>
		<path fill="#FFFFFF" d="M8,74C8,74,8,73.9,8,74C8,74,8,74,8,74c0,0.1,0.1,0.1,0.1,0.2C8.1,74.1,8.1,74.1,8,74z"/>
	</g>
</g>
</svg>
