<?xml version="1.0" encoding="utf-8"?>
<!-- Generator: Adobe Illustrator 17.1.0, SVG Export Plug-In . SVG Version: 6.00 Build 0)  -->
<!DOCTYPE svg PUBLIC "-//W3C//DTD SVG 1.1//EN" "http://www.w3.org/Graphics/SVG/1.1/DTD/svg11.dtd">
<svg version="1.1" id="Layer_1" xmlns="http://www.w3.org/2000/svg" xmlns:xlink="http://www.w3.org/1999/xlink" x="0px" y="0px"
	 viewBox="0 0 89.2 100" enable-background="new 0 0 89.2 100" xml:space="preserve">
<g id="Your_Icon">
	<g>
		<polygon fill="#1E3B4C" points="15.3,32.6 74,32.6 44.6,79.5 29.6,55.4 		"/>
	</g>
	<g>
		<polygon fill="#1E3B4C" points="11.9,35.9 40,80.9 0.6,75.3 3.5,65.4 11.9,35.9 		"/>
		<path fill="#1E3B4C" d="M11.9,35.9L3.5,65.4L11.9,35.9L11.9,35.9z"/>
	</g>
	<g>
		<polygon fill="#1E3B4C" points="77.4,35.9 77.4,35.9 85.8,65.4 88.6,75.3 49.3,80.9 		"/>
		<path fill="#1E3B4C" d="M77.4,35.9L77.4,35.9l8.4,29.5L77.4,35.9z"/>
	</g>
	<g>
		<polygon fill="#1E3B4C" points="79.8,81.2 47,100 47,85.9 		"/>
	</g>
	<g>
		<polygon fill="#1E3B4C" points="42.3,85.9 42.3,100 9.4,81.2 		"/>
	</g>
	<g>
		<polygon fill="#1E3B4C" points="44.6,0 72.5,27.9 16.7,27.9 		"/>
	</g>
	<g>
		<polygon fill="#1E3B4C" points="87.1,20.6 78.4,27.2 56.4,5.2 		"/>
		<path fill="#1E3B4C" d="M80.8,31.1l8.4-6.3v0L80.8,31.1z"/>
	</g>
	<g>
		<polygon fill="#1E3B4C" points="89.2,24.8 89.2,60.5 80.8,31.1 80.8,31.1 		"/>
	</g>
	<g>
		<polygon fill="#1E3B4C" points="32.8,5.2 10.9,27.2 2.1,20.6 		"/>
		<path fill="#1E3B4C" d="M0,24.8L0,24.8l8.4,6.3L0,24.8z"/>
	</g>
	<g>
		<polygon fill="#1E3B4C" points="0,24.8 8.4,31.1 8.4,31.1 0,60.5 		"/>
	</g>
</g>
</svg>
